<?xml version="1.0" encoding="utf-8"?>
<!-- Generator: Adobe Illustrator 21.0.0, SVG Export Plug-In . SVG Version: 6.00 Build 0)  -->
<svg version="1.1" id="Layer_1" xmlns="http://www.w3.org/2000/svg" xmlns:xlink="http://www.w3.org/1999/xlink" x="0px" y="0px"
	 width="226.8px" height="128.1px" viewBox="0 0 226.8 128.1" style="enable-background:new 0 0 226.8 128.1;" xml:space="preserve"
	>
<style type="text/css">
	.st0{fill:#343442;}
	.st1{fill:#296F9A;}
</style>
<g>
	<path class="st0" d="M43.1,55.5l-3.9-10.4H14.6l-3.9,10.4H0L21,1.9h11.7l21,53.6H43.1z M26.9,11.3l-9.6,25.5h19.3L26.9,11.3z"/>
	<path class="st0" d="M94.4,55.5l-11.8-20h-9.4v20h-9.4V1.9h23.5c10.6,0,17.6,6.8,17.6,16.8c0,9.5-6.3,14.7-12.8,15.7l13.2,21H94.4z
		 M95.3,18.6c0-5.1-3.9-8.4-9.2-8.4H73.2v17h12.9C91.4,27.2,95.3,23.9,95.3,18.6z"/>
	<path class="st0" d="M108.5,27.7c0-16,11.3-27.7,27.4-27.7c16,0,27.4,11.7,27.4,27.7c0,7.7-2.7,14.4-7.2,19.3l4.4,5l-6.5,5.5
		l-4.7-5.2c-3.9,2.1-8.5,3.2-13.5,3.2C119.8,55.4,108.5,43.7,108.5,27.7z M143.4,45.5l-6.7-7.5l6.6-5.5L150,40
		c2.3-3.3,3.6-7.6,3.6-12.3c0-11.1-7-19.4-17.8-19.4c-10.8,0-17.8,8.3-17.8,19.4c0,11,6.9,19.4,17.8,19.4
		C138.7,47.1,141.2,46.5,143.4,45.5z"/>
	<path class="st0" d="M172,46.8c0-4.5,3.9-8.5,8.6-8.5c4.7,0,8.6,3.9,8.6,8.5c0,4.7-3.9,8.7-8.6,8.7C175.9,55.5,172,51.5,172,46.8z"
		/>
	<path class="st1" d="M0,100.4c0-16.5,12.7-27.7,29.5-27.7c14.1,0,21.1,8.2,24.3,15.6l-14,6.5c-1.4-4.2-5.5-7.8-10.4-7.8
		c-7.8,0-13,5.9-13,13.4c0,7.5,5.2,13.4,13,13.4c4.8,0,9-3.6,10.4-7.8l14,6.4c-3.1,7.1-10.3,15.7-24.3,15.7
		C12.7,128.1,0,116.9,0,100.4z"/>
	<path class="st1" d="M63.8,126.3V72.7H80v39.4h20.3v14.1H63.8z"/>
	<path class="st1" d="M110.4,104.2V72.7h16.5v31c0,5.1,3.4,9.2,10,9.2c6.6,0,10-4.1,10-9.2v-31h16.5v31.5c0,13.3-8.4,23.1-26.4,23.1
		S110.4,117.5,110.4,104.2z"/>
	<path class="st1" d="M173.3,126.3V72.7h32.5c11.1,0,15.9,7.4,15.9,13.7c0,6.7-3.9,11.2-9.2,12.3c5.8,0.9,10.2,6.2,10.2,13.1
		c0,7.5-5.1,14.5-15.8,14.5H173.3z M205.3,89.2c0-1.8-1.5-3.1-3.2-3.1h-12.5v6.3H202C203.7,92.4,205.3,91.1,205.3,89.2z
		 M206.3,109.4c0-1.9-1.4-3.5-3.8-3.5h-13v6.8h13C204.9,112.8,206.3,111.4,206.3,109.4z"/>
	<path class="st1" d="M206.3,50.6c-2.2,0-4-1.8-4-4c0-11.5-9.9-21.3-21.7-21.3c-2.2,0-4-1.8-4-4s1.8-4,4-4
		c16.1,0,29.7,13.4,29.7,29.3C210.3,48.8,208.5,50.6,206.3,50.6z"/>
	<path class="st1" d="M222.8,50.3c-2.2,0-4-1.8-4-4c0-20.4-17.5-37.5-38.2-37.5c-2.2,0-4-1.8-4-4s1.8-4,4-4
		c25,0,46.2,20.9,46.2,45.6C226.8,48.5,225,50.3,222.8,50.3z"/>
</g>
</svg>
